<svg xmlns="http://www.w3.org/2000/svg" xmlns:xlink="http://www.w3.org/1999/xlink" fill="none" version="1.1" width="32" height="32" viewBox="0 0 32 32"><g><g></g><g><path d="M23.55555665637207,8.444444695511628Q23.55555565637207,8.629923395511627,23.54645465637207,8.815178495511628Q23.53735365637207,9.000434495511627,23.519173656372068,9.185019995511627Q23.50099365637207,9.369604695511628,23.47377765637207,9.553075395511627Q23.44656265637207,9.736546095511628,23.41037765637207,9.918460395511627Q23.37419365637207,10.100375695511627,23.32912565637207,10.280295895511626Q23.28405765637207,10.460216095511628,23.23021565637207,10.637707295511627Q23.17637465637207,10.815198495511627,23.11388865637207,10.989833895511627Q23.05140265637207,11.164469895511628,22.98042265637207,11.335829895511628Q22.90944265637207,11.507189895511628,22.83014065637207,11.674860895511626Q22.750839656372072,11.842530895511628,22.66340565637207,12.006108895511627Q22.57597165637207,12.169686895511628,22.48061565637207,12.328776895511627Q22.38526065637207,12.487866895511628,22.28221465637207,12.642085895511627Q22.17916865637207,12.796305895511628,22.06867865637207,12.945283895511627Q21.958190656372068,13.094260895511628,21.840524656372068,13.237637895511627Q21.72285765637207,13.381014895511628,21.59829665637207,13.518445895511627Q21.47373765637207,13.655875895511628,21.34258465637207,13.787028895511627Q21.21143165637207,13.918181895511626,21.07400065637207,14.042740895511628Q20.93657065637207,14.167301895511628,20.79319365637207,14.284968895511627Q20.64981665637207,14.402634895511627,20.500839656372072,14.513123895511628Q20.351861656372073,14.623612895511627,20.19764165637207,14.726658895511628Q20.043422656372073,14.829705895511626,19.88433265637207,14.925061895511627Q19.72524265637207,15.020415895511627,19.56166565637207,15.107850895511627Q19.39808765637207,15.195283895511627,19.23041665637207,15.274585895511628Q19.062745656372073,15.353886895511627,18.891385656372073,15.424866895511627Q18.720025656372073,15.495846895511628,18.54538965637207,15.558332895511628Q18.37075425637207,15.620818895511627,18.193263056372068,15.674659895511628Q18.01577185637207,15.728501895511627,17.83585165637207,15.773569895511628Q17.65593145637207,15.818637895511626,17.47401615637207,15.854821895511627Q17.29210185637207,15.891006895511627,17.10863115637207,15.918221895511627Q16.92515945637207,15.945437895511628,16.74057485637207,15.963618895511628Q16.555989256372072,15.981797895511628,16.37073425637207,15.990898895511627Q16.185479156372068,15.999999895511626,16.00000045637207,16.000000895511626Q15.81452175637207,15.999999895511626,15.62926675637207,15.990898895511627Q15.444012156372072,15.981797895511628,15.25942705637207,15.963617895511627Q15.07484145637207,15.945437895511628,14.89137075637207,15.918221895511627Q14.70789955637207,15.891006895511627,14.52598475637207,15.854821895511627Q14.34407045637207,15.818637895511626,14.16415075637207,15.773569895511628Q13.98423095637207,15.728501895511627,13.806738856372071,15.674659895511628Q13.62924675637207,15.620818895511627,13.45461085637207,15.558332895511628Q13.279973956372071,15.495846895511628,13.108613956372071,15.424866895511627Q12.937253956372071,15.353886895511627,12.76958365637207,15.274584895511627Q12.60191345637207,15.195283895511627,12.43833615637207,15.107849895511627Q12.27475855637207,15.020415895511627,12.11566825637207,14.925059895511627Q11.95657805637207,14.829704895511627,11.802358356372071,14.726658895511628Q11.648138556372071,14.623612895511627,11.49916095637207,14.513122895511627Q11.35018345637207,14.402634895511627,11.20680665637207,14.284968895511627Q11.063429856372071,14.167301895511628,10.92599915637207,14.042740895511628Q10.78856875637207,13.918181895511626,10.65741565637207,13.787028895511627Q10.526262556372071,13.655875895511628,10.40170265637207,13.518444895511626Q10.27714295637207,13.381014895511628,10.15947675637207,13.237637895511627Q10.04181025637207,13.094260895511628,9.93132085637207,12.945283895511627Q9.82083155637207,12.796305895511628,9.717785256372071,12.642085895511627Q9.61473895637207,12.487866895511628,9.51938395637207,12.328776895511627Q9.424028996372071,12.169686895511628,9.33659505637207,12.006109895511628Q9.249161126372071,11.842531895511627,9.16985881637207,11.674860895511626Q9.09055656637207,11.507189895511628,9.01957702637207,11.335829895511628Q8.948597486372071,11.164469895511628,8.886111676372071,10.989833895511627Q8.82362586637207,10.815198495511627,8.76978432637207,10.637707295511627Q8.71594276637207,10.460216095511628,8.67087516637207,10.280295895511626Q8.625807586372071,10.100375695511627,8.58962252637207,9.918460395511627Q8.55343747637207,9.736546095511628,8.52622213237207,9.553075395511627Q8.499006785372071,9.369603695511627,8.48082672037207,9.185019095511628Q8.46264665037207,9.000433495511627,8.453545653272071,8.815178495511628Q8.44444465637207,8.629923395511627,8.44444465637207,8.444444695511628Q8.44444465637207,8.258965995511627,8.453545653272071,8.073710995511627Q8.46264665037207,7.888456395511628,8.48082672037207,7.703871295511627Q8.499006785372071,7.519285695511627,8.52622212437207,7.335814995511627Q8.55343747637207,7.152343795511627,8.58962252637207,6.970428995511627Q8.625807586372071,6.788514695511627,8.67087517637207,6.608594995511627Q8.71594276637207,6.4286751955116275,8.76978432637207,6.251183095511627Q8.82362586637207,6.073690995511627,8.886111676372071,5.899055095511627Q8.948597486372071,5.724418195511627,9.01957702637207,5.553058195511627Q9.09055656637207,5.381698195511627,9.16985881637207,5.214027895511627Q9.249161126372071,5.046357695511627,9.33659505637207,4.882780395511627Q9.424028996372071,4.719202795511627,9.51938395637207,4.560112495511627Q9.61473895637207,4.401022295511627,9.717785256372071,4.246802595511627Q9.82083155637207,4.092582795511627,9.93132085637207,3.943605195511627Q10.04181025637207,3.794627695511627,10.15947675637207,3.651250895511627Q10.27714295637207,3.507874095511627,10.401702756372071,3.3704433955116273Q10.526262556372071,3.2330129955116274,10.65741565637207,3.101859895511627Q10.78856875637207,2.970706795511627,10.92599915637207,2.846146895511627Q11.063429856372071,2.721587195511627,11.20680665637207,2.6039209955116274Q11.35018345637207,2.486254495511627,11.49916125637207,2.3757650955116274Q11.648138556372071,2.265275795511627,11.802358356372071,2.1622294955116272Q11.95657805637207,2.0591831955116273,12.11566825637207,1.9638281955116272Q12.27475855637207,1.8684732355116274,12.43833615637207,1.7810392955116272Q12.60191345637207,1.6936053655116272,12.76958365637207,1.6143030555116273Q12.937253956372071,1.5350008055116273,13.108613956372071,1.4640212655116271Q13.279973956372071,1.3930417255116272,13.45461035637207,1.3305559155116273Q13.62924675637207,1.2680701055116272,13.806738856372071,1.2142285655116272Q13.98423095637207,1.1603870055116272,14.16415075637207,1.1153194055116271Q14.34407045637207,1.0702518255116271,14.52598475637207,1.0340667655116271Q14.70789955637207,0.9978817155116272,14.89137075637207,0.9706663715116272Q15.07484145637207,0.9434510245116272,15.25942705637207,0.9252709595116272Q15.444012156372072,0.9070908895116272,15.62926675637207,0.8979898924116272Q15.81452175637207,0.8888888955116272,16.00000045637207,0.8888888955116272Q16.185479156372068,0.8888888955116272,16.37073425637207,0.8979898924116272Q16.55599025637207,0.9070908895116272,16.74057575637207,0.9252709595116272Q16.92516045637207,0.9434510245116272,17.10863115637207,0.9706663635116272Q17.29210185637207,0.9978817155116272,17.47401615637207,1.0340667655116271Q17.65593145637207,1.0702518255116271,17.83585165637207,1.1153194155116273Q18.01577185637207,1.1603870055116272,18.193263056372068,1.2142285655116272Q18.37075425637207,1.2680701055116272,18.54538965637207,1.3305559155116273Q18.720025656372073,1.3930417255116272,18.891385656372073,1.4640212655116271Q19.062745656372073,1.5350008055116273,19.23041665637207,1.6143030555116273Q19.398086656372072,1.6936053655116272,19.56166465637207,1.7810392955116272Q19.72524265637207,1.8684732355116274,19.88433265637207,1.9638281955116272Q20.043422656372073,2.0591831955116273,20.19764165637207,2.1622294955116272Q20.351861656372073,2.265275795511627,20.500839656372072,2.3757650955116274Q20.64981665637207,2.486254495511627,20.79319365637207,2.6039209955116274Q20.93657065637207,2.721587195511627,21.07400165637207,2.846146995511627Q21.21143165637207,2.970706795511627,21.34258465637207,3.101859895511627Q21.47373765637207,3.2330129955116274,21.59829665637207,3.3704433955116273Q21.72285765637207,3.507874095511627,21.840524656372068,3.651250895511627Q21.958190656372068,3.794627695511627,22.06867965637207,3.943605495511627Q22.17916865637207,4.092582795511627,22.28221465637207,4.246802595511627Q22.38526165637207,4.401022295511627,22.48061765637207,4.560112495511627Q22.57597165637207,4.719202795511627,22.663406656372068,4.882780395511627Q22.750839656372072,5.046357695511627,22.83014165637207,5.214027895511627Q22.90944265637207,5.381698195511627,22.98042265637207,5.553058195511627Q23.05140265637207,5.724418195511627,23.11388865637207,5.899054595511627Q23.17637465637207,6.073690995511627,23.23021565637207,6.251183095511627Q23.28405765637207,6.4286751955116275,23.32912565637207,6.608594995511627Q23.37419365637207,6.788514695511627,23.41037765637207,6.970428995511627Q23.44656265637207,7.152343795511627,23.47377765637207,7.335814995511627Q23.50099365637207,7.519285695511627,23.519174656372073,7.703871295511627Q23.53735365637207,7.888456395511628,23.54645465637207,8.073710995511627Q23.55555565637207,8.258965995511627,23.55555665637207,8.444444695511628ZM20.888889656372072,8.444444695511628Q20.888889656372072,8.324429095511627,20.88299965637207,8.204557995511628Q20.877110656372068,8.084687295511628,20.86534665637207,7.965250095511627Q20.85358365637207,7.8458123955116275,20.83597365637207,7.727095195511628Q20.81836365637207,7.608378995511627,20.79494865637207,7.490669295511627Q20.77153365637207,7.372959695511627,20.74237265637207,7.2565407955116275Q20.71321065637207,7.140122495511627,20.67837365637207,7.025274795511627Q20.64353365637207,6.910427195511627,20.60310165637207,6.797427195511627Q20.562669656372073,6.684427295511627,20.51674265637207,6.5735473955116275Q20.47081465637207,6.4626679955116275,20.41950265637207,6.354175195511627Q20.36818865637207,6.245682295511627,20.31161365637207,6.139838295511627Q20.25503965637207,6.033993795511627,20.19333865637207,5.931052695511627Q20.13163865637207,5.828112195511627,20.06496165637207,5.728322995511627Q19.99828565637207,5.6285338955116275,19.92679165637207,5.532136995511627Q19.85529865637207,5.435740095511627,19.779162656372073,5.342966595511627Q19.703024656372072,5.250193195511627,19.62242665637207,5.161267295511627Q19.54182965637207,5.072341495511627,19.45696665637207,4.987477795511627Q19.37210265637207,4.902614195511627,19.283177656372068,4.822016795511628Q19.19425165637207,4.7414193955116275,19.10147965637207,4.665282295511627Q19.008705656372072,4.589145195511627,18.91230865637207,4.517652095511627Q18.81591065637207,4.446158995511627,18.71612165637207,4.379481895511628Q18.61633165637207,4.312804795511627,18.51339165637207,4.251104395511627Q18.41045095637207,4.189404295511627,18.30460735637207,4.132829495511627Q18.19876285637207,4.0762543955116275,18.090269056372072,4.024941295511628Q17.981776256372072,3.973628095511627,17.87089635637207,3.9277000955116272Q17.76001645637207,3.8817720955116273,17.647016556372073,3.841340395511627Q17.53401755637207,3.800908195511627,17.41917035637207,3.7660696955116273Q17.30432225637207,3.7312307955116273,17.18790335637207,3.7020695955116274Q17.07148365637207,3.672907895511627,16.95377445637207,3.649494195511627Q16.83606525637207,3.626080295511627,16.71734805637207,3.6084704955116274Q16.598631856372073,3.5908608955116272,16.479194656372073,3.579097295511627Q16.35975745637207,3.5673337955116273,16.23988625637207,3.561444795511627Q16.12001565637207,3.555555595511627,16.00000045637207,3.555555595511627Q15.87998485637207,3.555555595511627,15.760113756372071,3.5614445955116274Q15.640243056372071,3.5673337955116273,15.520805856372071,3.579097295511627Q15.40136815637207,3.5908608955116272,15.28265095637207,3.608470695511627Q15.16393475637207,3.626080295511627,15.04622505637207,3.649494195511627Q14.92851545637207,3.672907895511627,14.81209655637207,3.7020695955116274Q14.69567825637207,3.7312307955116273,14.58083055637207,3.7660696955116273Q14.46598295637207,3.800908195511627,14.35298295637207,3.841340395511627Q14.23998305637207,3.8817720955116273,14.129103156372071,3.9277000955116272Q14.01822375637207,3.973628095511627,13.90973095637207,4.024941295511628Q13.801238056372071,4.0762543955116275,13.69539405637207,4.132829495511627Q13.58954955637207,4.189404295511627,13.486608456372071,4.251104395511627Q13.38366795637207,4.312804795511627,13.28387875637207,4.379481895511628Q13.18408965637207,4.446158995511627,13.087692756372071,4.517652095511627Q12.99129585637207,4.589145195511627,12.89852235637207,4.665282295511627Q12.80574895637207,4.7414193955116275,12.716823056372071,4.822016795511628Q12.62789725637207,4.902614195511627,12.54303355637207,4.987477795511627Q12.458169956372071,5.072341495511627,12.37757255637207,5.161267295511627Q12.29697515637207,5.250193195511627,12.22083805637207,5.342966595511627Q12.14470095637207,5.435740095511627,12.07320785637207,5.532136995511627Q12.00171475637207,5.6285338955116275,11.93503765637207,5.728322995511627Q11.868360556372071,5.828112195511627,11.80666015637207,5.931053195511627Q11.74496005637207,6.033993795511627,11.68838525637207,6.139838295511627Q11.63181015637207,6.245682295511627,11.58049705637207,6.354175195511627Q11.52918385637207,6.4626679955116275,11.48325585637207,6.5735473955116275Q11.43732785637207,6.684427295511627,11.39689585637207,6.797427195511627Q11.356463956372071,6.910427195511627,11.32162545637207,7.025274795511627Q11.286786556372071,7.140122495511627,11.25762505637207,7.256541295511627Q11.228463656372071,7.372959695511627,11.20504995637207,7.490669295511627Q11.18163585637207,7.608378995511627,11.16402625637207,7.727095695511627Q11.14641645637207,7.8458123955116275,11.13465305637207,7.965250095511627Q11.12288955637207,8.084687295511628,11.11700055637207,8.204557995511628Q11.11111135637207,8.324429095511627,11.11111135637207,8.444444695511628Q11.11111135637207,8.564459895511627,11.11700035637207,8.684330495511627Q11.122889256372071,8.804201695511626,11.134652856372071,8.923638895511628Q11.14641615637207,9.043076095511628,11.16402625637207,9.161792295511628Q11.18163585637207,9.280509495511627,11.20504975637207,9.398218695511627Q11.228463656372071,9.515927895511627,11.25762505637207,9.632346695511627Q11.286786556372071,9.748765495511627,11.32162525637207,9.863613695511628Q11.356463956372071,9.978461795511627,11.39689585637207,10.091460795511628Q11.43732785637207,10.204460695511628,11.48325565637207,10.315340595511627Q11.52918365637207,10.426220495511627,11.58049675637207,10.534713295511628Q11.63181015637207,10.643206195511627,11.68838505637207,10.749050695511627Q11.74495985637207,10.854894195511628,11.80665995637207,10.957835895511627Q11.868360256372071,11.060775895511627,11.93503735637207,11.160565895511628Q12.00171425637207,11.260354895511627,12.07320765637207,11.356752895511628Q12.14470095637207,11.453149895511627,12.22083805637207,11.545923895511628Q12.29697515637207,11.638695895511628,12.37757255637207,11.727621895511627Q12.458169956372071,11.816546895511626,12.54303355637207,11.901410895511628Q12.62789725637207,11.986273895511626,12.716823056372071,12.066871895511627Q12.80574895637207,12.147468895511627,12.89852235637207,12.223606895511628Q12.99129585637207,12.299742895511628,13.087692756372071,12.371235895511628Q13.18408965637207,12.442729895511627,13.28387875637207,12.509406895511628Q13.38366795637207,12.576083895511626,13.48660895637207,12.637783895511626Q13.58954955637207,12.699483895511626,13.69539405637207,12.756058895511627Q13.801238056372071,12.812632895511626,13.90973095637207,12.863946895511628Q14.01822375637207,12.915258895511627,14.129103156372071,12.961186895511627Q14.23998305637207,13.007113895511628,14.35298295637207,13.047545895511627Q14.46598295637207,13.087977895511628,14.58083055637207,13.122817895511627Q14.69567825637207,13.157654895511627,14.812097056372071,13.186816895511628Q14.92851545637207,13.215977895511628,15.04622505637207,13.239392895511628Q15.16393475637207,13.262807895511628,15.28265145637207,13.280416895511626Q15.40136815637207,13.298028895511628,15.520805856372071,13.309791895511626Q15.640243056372071,13.321555895511628,15.760113756372071,13.327443895511626Q15.87998485637207,13.333333895511627,16.00000045637207,13.333333895511627Q16.12001565637207,13.333333895511627,16.23988625637207,13.327443895511626Q16.35975745637207,13.321554895511627,16.479194656372073,13.309790895511627Q16.598631856372073,13.298027895511627,16.71734805637207,13.280417895511627Q16.83606525637207,13.262807895511628,16.95377445637207,13.239392895511628Q17.07148365637207,13.215977895511628,17.187902456372072,13.186816895511628Q17.30432125637207,13.157654895511627,17.41916945637207,13.122817895511627Q17.53401755637207,13.087977895511628,17.647016556372073,13.047545895511627Q17.76001645637207,13.007113895511628,17.87089635637207,12.961186895511627Q17.981776256372072,12.915258895511627,18.090269056372072,12.863946895511628Q18.19876195637207,12.812632895511626,18.30460645637207,12.756057895511628Q18.41044995637207,12.699483895511626,18.51339165637207,12.637782895511627Q18.61633165637207,12.576082895511627,18.71612165637207,12.509405895511627Q18.81591065637207,12.442729895511627,18.91230865637207,12.371235895511628Q19.008705656372072,12.299742895511628,19.10147965637207,12.223606895511628Q19.19425165637207,12.147468895511627,19.283177656372068,12.066870895511627Q19.37210265637207,11.986273895511626,19.45696665637207,11.901410895511628Q19.54182965637207,11.816546895511626,19.622427656372068,11.727621895511627Q19.703024656372072,11.638695895511628,19.779162656372073,11.545923895511628Q19.85529865637207,11.453149895511627,19.92679165637207,11.356752895511628Q19.99828565637207,11.260354895511627,20.06496265637207,11.160565895511628Q20.13163965637207,11.060775895511627,20.193339656372068,10.957835895511627Q20.25503965637207,10.854895195511627,20.311614656372072,10.749051595511627Q20.36818865637207,10.643207095511627,20.41950265637207,10.534713295511628Q20.47081465637207,10.426220495511627,20.51674265637207,10.315340595511627Q20.562669656372073,10.204460695511628,20.60310165637207,10.091460795511628Q20.64353365637207,9.978461795511627,20.67837365637207,9.863614595511628Q20.71321065637207,9.748766495511628,20.74237265637207,9.632347595511627Q20.77153365637207,9.515927895511627,20.79494865637207,9.398218695511627Q20.81836365637207,9.280509495511627,20.83597265637207,9.161792295511628Q20.85358465637207,9.043076095511628,20.86534765637207,8.923638895511628Q20.877111656372072,8.804201695511626,20.88299965637207,8.684330495511627Q20.888889656372072,8.564459895511627,20.888889656372072,8.444444695511628Z" fill="#3B4163" fill-opacity="1"/></g><g><path d="M2.6666667461395264 24.444443702697754C2.6666667461395264 21.253465206642034 5.253465921897773 18.66666603088379 8.444444417953491 18.66666603088379L23.55555510520935 18.66666603088379C26.74653360126507 18.66666603088379 29.333332777023315 21.253465206642034 29.333332777023315 24.444443702697754L29.333332777023315 28.444443583488464C29.333332777023315 29.426283146058484 28.53739454857008 30.22222137451172 27.55555498600006 30.22222137451172L4.444444537162781 30.22222137451172C3.4626049745927623 30.22222137451172 2.6666667461395264 29.426283146058484 2.6666667461395264 28.444443583488464Z" fill-opacity="0" stroke-opacity="1" stroke="#3B4163" fill="none" stroke-width="2.6666667461395264"/></g></g></svg>